<svg width="20" height="20" fill="none" xmlns="http://www.w3.org/2000/svg"><g clip-path="url(#clip0)" fill="#AFB1B8"><path d="M19.9804 5.88c-.0468-1.0626-.2187-1.7932-.4649-2.4263-.2539-.672-.6446-1.2736-1.1565-1.7737A4.9217 4.9217 0 0016.5891.5274c-.6367-.2461-1.3635-.418-2.4262-.4648C13.0923.0118 12.7524 0 10.0371 0c-2.7154 0-3.0553.0118-4.122.0586-1.0626.0469-1.7932.2189-2.426.4649-.6722.254-1.2738.6446-1.774 1.1565A4.924 4.924 0 00.5626 3.45c-.2462.6368-.418 1.3634-.4649 2.426C.0469 6.9468.0351 7.2867.0351 10.002c0 2.7153.0118 3.0552.0586 4.1219.0469 1.0626.2189 1.7932.465 2.4263a4.9322 4.9322 0 001.1564 1.7737 4.9224 4.9224 0 001.77 1.1526c.6368.2461 1.3634.418 2.4263.4648 1.0664.047 1.4065.0586 4.1219.0586 2.7153 0 3.0552-.0116 4.1219-.0586 1.0626-.0468 1.7932-.2187 2.4261-.4648a5.116 5.116 0 002.9265-2.9263c.246-.6369.418-1.3637.4648-2.4263.0469-1.0667.0586-1.4066.0586-4.1219 0-2.7154-.0039-3.0553-.0508-4.122zm-1.801 8.1657c-.0431.9768-.2071 1.5042-.3439 1.8558a3.3178 3.3178 0 01-1.8988 1.8989c-.3517.1368-.8829.3008-1.8559.3437-1.0549.047-1.3712.0586-4.0398.0586-2.6685 0-2.9888-.0116-4.0399-.0586-.9768-.0429-1.5042-.2069-1.8558-.3437-.4336-.1602-.8283-.4142-1.1486-.7463a3.1091 3.1091 0 01-.7463-1.1486c-.1368-.3516-.3008-.883-.3437-1.8558-.047-1.0549-.0586-1.3714-.0586-4.04 0-2.6685.0116-2.9888.0586-4.0398.0429-.9767.207-1.5042.3437-1.8558.1602-.4337.4142-.8282.7502-1.1487a3.1048 3.1048 0 011.1486-.7462c.3517-.1367.883-.3008 1.8559-.3438 1.0549-.0469 1.3714-.0586 4.0398-.0586 2.6724 0 2.9888.0117 4.0399.0586.9767.043 1.5042.207 1.8558.3438.4336.1601.8283.414 1.1486.7462a3.108 3.108 0 01.7463 1.1487c.1368.3517.3008.883.3439 1.8559.0468 1.0548.0586 1.3712.0586 4.0397 0 2.6686-.0118 2.9811-.0586 4.036z"/><path d="M10.0371 4.8642c-2.8364 0-5.1377 2.3012-5.1377 5.1377 0 2.8366 2.3013 5.1377 5.1377 5.1377 2.8365 0 5.1377-2.3011 5.1377-5.1377 0-2.8365-2.3012-5.1377-5.1377-5.1377zm0 8.4704c-1.8401 0-3.3327-1.4924-3.3327-3.3327 0-1.8402 1.4926-3.3327 3.3327-3.3327 1.8403 0 3.3327 1.4924 3.3327 3.3327s-1.4924 3.3327-3.3327 3.3327zM16.5775 4.6611c0 .6624-.537 1.1994-1.1995 1.1994-.6624 0-1.1995-.537-1.1995-1.1994 0-.6625.5371-1.1994 1.1995-1.1994.6625 0 1.1995.5369 1.1995 1.1994z"/></g><defs><clipPath id="clip0"><path fill="#fff" d="M0 0h20v20H0z"/></clipPath></defs></svg>